<svg xmlns="http://www.w3.org/2000/svg" width="17" height="17" viewBox="0 0 17 17" fill="none">
  <path d="M16.8867 3.4C16.8576 3.27455 16.8232 3.15132 16.7836 3.0303C16.491 2.13418 15.9182 1.36469 15.1687 0.82551C15.1687 0.82551 15.1687 0.825379 15.1684 0.825379C14.7734 0.541004 14.3292 0.32072 13.8511 0.17964C13.851 0.17964 13.851 0.17951 13.8509 0.17951C13.4555 0.062659 13.0368 0 12.6035 0C11.4464 0 10.3935 0.44708 9.60853 1.17789L9.60644 1.17984L3.98624 6.8C3.98624 6.8 1.45954 9.33085 1.40157 9.38478L1.39948 9.38674L1.17985 9.60637L1.17789 9.60845C1.00724 9.79174 0.852091 9.98962 0.714657 10.2C0.262753 10.8908 0 11.7165 0 12.6034C0 12.9462 0.039211 13.2798 0.113464 13.6C0.128576 13.6654 0.14525 13.7303 0.163227 13.7945C0.163227 13.7946 0.163227 13.7946 0.163227 13.7948C0.309129 14.3145 0.548303 14.7953 0.861601 15.2181C1.39883 15.9434 2.154 16.4974 3.03019 16.7835C3.46021 16.9241 3.91954 17 4.39646 17H12.6034C14.6889 17 16.4352 15.5482 16.8865 13.6C16.9608 13.2798 17 12.9462 17 12.6034V4.39655C17 4.05382 16.9608 3.7202 16.8865 3.4H16.8867ZM12.5586 10.2C12.4115 11.5332 11.2814 12.57 9.90932 12.57C9.50731 12.57 9.12601 12.481 8.78431 12.3217C8.59243 12.2322 8.41292 12.1205 8.2493 11.99C8.17061 11.9274 8.09558 11.8603 8.02458 11.7893C7.60759 11.3724 7.32829 10.818 7.26003 10.2C7.24935 10.1031 7.24388 10.0045 7.24388 9.90455C7.24388 9.70055 7.26681 9.50189 7.31032 9.31092C7.53607 8.31802 8.31626 7.53575 9.30826 7.30713C9.50144 7.26271 9.70258 7.23913 9.90932 7.23913C10.6453 7.23913 11.3117 7.53745 11.7941 8.01983C11.8662 8.092 11.9342 8.16834 11.9977 8.24832H11.9978C12.1282 8.41246 12.2396 8.59236 12.3288 8.78464C12.4867 9.12516 12.5748 9.5045 12.5748 9.90455C12.5748 10.0045 12.5693 10.1031 12.5586 10.2Z" fill="url(#paint0_linear_487_45)"/>
  <defs>
    <linearGradient id="paint0_linear_487_45" x1="8.50007" y1="6.40125" x2="8.50007" y2="17.207" gradientUnits="userSpaceOnUse">
      <stop offset="0.37" stop-color="#FFC513"/>
      <stop offset="0.54" stop-color="#FFC011"/>
      <stop offset="0.74" stop-color="#FFB20B"/>
      <stop offset="0.95" stop-color="#FF9C01"/>
      <stop offset="0.98" stop-color="#FF9900"/>
    </linearGradient>
  </defs>
</svg>