<svg width="51" height="51" viewBox="0 0 51 51" fill="none" xmlns="http://www.w3.org/2000/svg">
<path id="Vector" d="M50.66 10.2C50.5729 9.82366 50.4697 9.45395 50.3509 9.0909C49.4731 6.40255 47.7547 4.09407 45.506 2.47653C45.506 2.47653 45.506 2.47614 45.5052 2.47614C44.3203 1.62301 42.9877 0.962161 41.5534 0.53892C41.553 0.53892 41.553 0.538529 41.5526 0.538529C40.3665 0.187977 39.1105 0 37.8106 0C34.3391 0 31.1806 1.34124 28.8256 3.53366L28.8193 3.53952L11.9587 20.4C11.9587 20.4 4.37861 27.9926 4.2047 28.1543L4.19845 28.1602L3.53954 28.8191L3.53368 28.8254C3.02172 29.3752 2.55627 29.9689 2.14397 30.6C0.788259 32.6724 0 35.1494 0 37.8103C0 38.8386 0.117633 39.8394 0.340393 40.8C0.385727 40.9962 0.43575 41.1908 0.489682 41.3835C0.489682 41.3839 0.489682 41.3839 0.489682 41.3843C0.927386 42.9436 1.64491 44.386 2.5848 45.6542C4.19649 47.8302 6.462 49.4923 9.09058 50.3505C10.3806 50.7722 11.7586 51 13.1894 51H37.8102C44.0667 51 49.3055 46.6445 50.6596 40.8C50.8824 39.8394 51 38.8386 51 37.8103V13.1897C51 12.1614 50.8824 11.1606 50.6596 10.2H50.66ZM37.6758 30.6C37.2346 34.5995 33.8443 37.7099 29.728 37.7099C28.5219 37.7099 27.378 37.443 26.3529 36.965C25.7773 36.6966 25.2387 36.3616 24.7479 35.97C24.5118 35.7821 24.2867 35.5808 24.0737 35.3678C22.8228 34.1172 21.9849 32.454 21.7801 30.6C21.7481 30.3092 21.7316 30.0134 21.7316 29.7137C21.7316 29.1017 21.8004 28.5057 21.931 27.9328C22.6082 24.954 24.9488 22.6073 27.9248 21.9214C28.5043 21.7881 29.1077 21.7174 29.728 21.7174C31.936 21.7174 33.935 22.6123 35.3822 24.0595C35.5987 24.276 35.8027 24.505 35.993 24.745H35.9934C36.3846 25.2374 36.7187 25.7771 36.9864 26.3539C37.4601 27.3755 37.7243 28.5135 37.7243 29.7137C37.7243 30.0134 37.7079 30.3092 37.6758 30.6Z" fill="url(#paint0_linear_403_351)"/>
<defs>
<linearGradient id="paint0_linear_403_351" x1="25.5002" y1="19.2037" x2="25.5002" y2="51.621" gradientUnits="userSpaceOnUse">
<stop offset="0.37" stop-color="#FFC513"/>
<stop offset="0.54" stop-color="#FFC011"/>
<stop offset="0.74" stop-color="#FFB20B"/>
<stop offset="0.95" stop-color="#FF9C01"/>
<stop offset="0.98" stop-color="#FF9900"/>
</linearGradient>
</defs>
</svg>
