<svg width="16" height="17" viewBox="0 0 16 17" fill="none" xmlns="http://www.w3.org/2000/svg">
<g id="paper-airplane" clip-path="url(#clip0_487_20)">
<path id="Icon" fill-rule="evenodd" clip-rule="evenodd" d="M1.5918 3.21245L2.38095 7.75004H7.25013C7.66434 7.75004 8.00013 8.08582 8.00013 8.50004C8.00013 8.91425 7.66434 9.25004 7.25013 9.25004H2.38095L1.5918 13.7876L13.9295 8.50004L1.5918 3.21245ZM0.988869 8.50004L0.0637969 3.18087C-0.0109877 2.75086 0.128154 2.31135 0.436783 2.00272C0.824568 1.61494 1.40938 1.50231 1.91345 1.71834L15.3158 7.4622C15.7309 7.64013 16.0001 8.04835 16.0001 8.50004C16.0001 8.95172 15.7309 9.35995 15.3158 9.53788L1.91345 15.2817C1.40938 15.4978 0.824568 15.3851 0.436783 14.9974C0.128154 14.6887 -0.0109879 14.2492 0.0637969 13.8192L0.988869 8.50004Z" fill="#666668"/>
</g>
<defs>
<clipPath id="clip0_487_20">
<rect width="16" height="16" fill="white" transform="translate(0 0.5)"/>
</clipPath>
</defs>
</svg>
